<mxfile host="app.diagrams.net" modified="2024-06-20T06:09:35.154Z" agent="Mozilla/5.0 (Macintosh; Intel Mac OS X 10_15_7) AppleWebKit/605.1.15 (KHTML, like Gecko) Version/17.5 Safari/605.1.15" etag="lm7_m5lwu6z9X6VPaIfb" version="24.5.5" type="github">
  <diagram name="Page-1" id="2YBvvXClWsGukQMizWep">
    <mxGraphModel dx="856" dy="491" grid="1" gridSize="10" guides="1" tooltips="1" connect="1" arrows="1" fold="1" page="1" pageScale="1" pageWidth="850" pageHeight="1100" math="0" shadow="0">
      <root>
        <mxCell id="0" />
        <mxCell id="1" parent="0" />
        <mxCell id="5vJaagCbqqgqVa84Y0La-13" value="" style="shape=umlLifeline;perimeter=lifelinePerimeter;whiteSpace=wrap;html=1;container=1;dropTarget=0;collapsible=0;recursiveResize=0;outlineConnect=0;portConstraint=eastwest;newEdgeStyle={&quot;curved&quot;:0,&quot;rounded&quot;:0};participant=umlActor;" parent="1" vertex="1">
          <mxGeometry x="180" y="180" width="20" height="350" as="geometry" />
        </mxCell>
        <mxCell id="5vJaagCbqqgqVa84Y0La-14" value="" style="html=1;points=[[0,0,0,0,5],[0,1,0,0,-5],[1,0,0,0,5],[1,1,0,0,-5]];perimeter=orthogonalPerimeter;outlineConnect=0;targetShapes=umlLifeline;portConstraint=eastwest;newEdgeStyle={&quot;curved&quot;:0,&quot;rounded&quot;:0};" parent="5vJaagCbqqgqVa84Y0La-13" vertex="1">
          <mxGeometry x="5" y="70" width="10" height="180" as="geometry" />
        </mxCell>
        <mxCell id="5vJaagCbqqgqVa84Y0La-26" value="" style="html=1;points=[[0,0,0,0,5],[0,1,0,0,-5],[1,0,0,0,5],[1,1,0,0,-5]];perimeter=orthogonalPerimeter;outlineConnect=0;targetShapes=umlLifeline;portConstraint=eastwest;newEdgeStyle={&quot;curved&quot;:0,&quot;rounded&quot;:0};" parent="5vJaagCbqqgqVa84Y0La-13" vertex="1">
          <mxGeometry x="5" y="270" width="10" height="50" as="geometry" />
        </mxCell>
        <mxCell id="5vJaagCbqqgqVa84Y0La-16" value=":Cryptography Biometric Manager" style="shape=umlLifeline;perimeter=lifelinePerimeter;whiteSpace=wrap;html=1;container=1;dropTarget=0;collapsible=0;recursiveResize=0;outlineConnect=0;portConstraint=eastwest;newEdgeStyle={&quot;curved&quot;:0,&quot;rounded&quot;:0};" parent="1" vertex="1">
          <mxGeometry x="340" y="180" width="150" height="330" as="geometry" />
        </mxCell>
        <mxCell id="5vJaagCbqqgqVa84Y0La-17" value="" style="html=1;points=[[0,0,0,0,5],[0,1,0,0,-5],[1,0,0,0,5],[1,1,0,0,-5]];perimeter=orthogonalPerimeter;outlineConnect=0;targetShapes=umlLifeline;portConstraint=eastwest;newEdgeStyle={&quot;curved&quot;:0,&quot;rounded&quot;:0};" parent="5vJaagCbqqgqVa84Y0La-16" vertex="1">
          <mxGeometry x="70" y="70" width="10" height="180" as="geometry" />
        </mxCell>
        <mxCell id="5vJaagCbqqgqVa84Y0La-20" value="" style="html=1;points=[[0,0,0,0,5],[0,1,0,0,-5],[1,0,0,0,5],[1,1,0,0,-5]];perimeter=orthogonalPerimeter;outlineConnect=0;targetShapes=umlLifeline;portConstraint=eastwest;newEdgeStyle={&quot;curved&quot;:0,&quot;rounded&quot;:0};" parent="5vJaagCbqqgqVa84Y0La-16" vertex="1">
          <mxGeometry x="75" y="110" width="10" height="40" as="geometry" />
        </mxCell>
        <mxCell id="5vJaagCbqqgqVa84Y0La-21" value="create new keystore" style="html=1;align=left;spacingLeft=2;endArrow=block;rounded=0;edgeStyle=orthogonalEdgeStyle;curved=0;rounded=0;" parent="5vJaagCbqqgqVa84Y0La-16" source="5vJaagCbqqgqVa84Y0La-17" target="5vJaagCbqqgqVa84Y0La-20" edge="1">
          <mxGeometry relative="1" as="geometry">
            <mxPoint x="85" y="90" as="sourcePoint" />
            <Array as="points">
              <mxPoint x="115" y="100" />
              <mxPoint x="115" y="130" />
            </Array>
          </mxGeometry>
        </mxCell>
        <mxCell id="5vJaagCbqqgqVa84Y0La-24" value="" style="html=1;points=[[0,0,0,0,5],[0,1,0,0,-5],[1,0,0,0,5],[1,1,0,0,-5]];perimeter=orthogonalPerimeter;outlineConnect=0;targetShapes=umlLifeline;portConstraint=eastwest;newEdgeStyle={&quot;curved&quot;:0,&quot;rounded&quot;:0};" parent="5vJaagCbqqgqVa84Y0La-16" vertex="1">
          <mxGeometry x="75" y="180" width="10" height="40" as="geometry" />
        </mxCell>
        <mxCell id="5vJaagCbqqgqVa84Y0La-25" value="encrypt text" style="html=1;align=left;spacingLeft=2;endArrow=block;rounded=0;edgeStyle=orthogonalEdgeStyle;curved=0;rounded=0;" parent="5vJaagCbqqgqVa84Y0La-16" target="5vJaagCbqqgqVa84Y0La-24" edge="1">
          <mxGeometry relative="1" as="geometry">
            <mxPoint x="80" y="160" as="sourcePoint" />
            <Array as="points">
              <mxPoint x="110" y="190" />
            </Array>
          </mxGeometry>
        </mxCell>
        <mxCell id="5vJaagCbqqgqVa84Y0La-19" value="register biometric" style="html=1;verticalAlign=bottom;endArrow=block;curved=0;rounded=0;" parent="1" edge="1" target="5vJaagCbqqgqVa84Y0La-17">
          <mxGeometry width="80" relative="1" as="geometry">
            <mxPoint x="195" y="260" as="sourcePoint" />
            <mxPoint x="385" y="260" as="targetPoint" />
          </mxGeometry>
        </mxCell>
        <mxCell id="5vJaagCbqqgqVa84Y0La-22" value=":Local Storage" style="shape=umlLifeline;perimeter=lifelinePerimeter;whiteSpace=wrap;html=1;container=1;dropTarget=0;collapsible=0;recursiveResize=0;outlineConnect=0;portConstraint=eastwest;newEdgeStyle={&quot;curved&quot;:0,&quot;rounded&quot;:0};" parent="1" vertex="1">
          <mxGeometry x="630" y="180" width="100" height="320" as="geometry" />
        </mxCell>
        <mxCell id="5vJaagCbqqgqVa84Y0La-28" value="" style="html=1;points=[[0,0,0,0,5],[0,1,0,0,-5],[1,0,0,0,5],[1,1,0,0,-5]];perimeter=orthogonalPerimeter;outlineConnect=0;targetShapes=umlLifeline;portConstraint=eastwest;newEdgeStyle={&quot;curved&quot;:0,&quot;rounded&quot;:0};" parent="5vJaagCbqqgqVa84Y0La-22" vertex="1">
          <mxGeometry x="45" y="260" width="10" height="50" as="geometry" />
        </mxCell>
        <mxCell id="5vJaagCbqqgqVa84Y0La-23" value="return encrypted text" style="html=1;verticalAlign=bottom;endArrow=open;dashed=1;endSize=8;curved=0;rounded=0;" parent="1" edge="1" source="5vJaagCbqqgqVa84Y0La-17">
          <mxGeometry relative="1" as="geometry">
            <mxPoint x="385" y="420" as="sourcePoint" />
            <mxPoint x="195" y="420" as="targetPoint" />
          </mxGeometry>
        </mxCell>
        <mxCell id="5vJaagCbqqgqVa84Y0La-27" value="save encrypted text" style="html=1;verticalAlign=bottom;endArrow=block;curved=0;rounded=0;" parent="1" source="5vJaagCbqqgqVa84Y0La-26" target="5vJaagCbqqgqVa84Y0La-28" edge="1">
          <mxGeometry width="80" relative="1" as="geometry">
            <mxPoint x="200" y="470" as="sourcePoint" />
            <mxPoint x="280" y="470" as="targetPoint" />
          </mxGeometry>
        </mxCell>
        <mxCell id="DYWzGduSRS38zlMipba4-1" value="Register Cryptography Biometric" style="text;strokeColor=none;fillColor=none;html=1;fontSize=24;fontStyle=1;verticalAlign=middle;align=center;" vertex="1" parent="1">
          <mxGeometry x="365" y="80" width="100" height="40" as="geometry" />
        </mxCell>
      </root>
    </mxGraphModel>
  </diagram>
</mxfile>
